<?xml version="1.0" encoding="UTF-8"?>
<!DOCTYPE svg PUBLIC "-//W3C//DTD SVG 1.1//EN" "http://www.w3.org/Graphics/SVG/1.1/DTD/svg11.dtd">
<svg xmlns="http://www.w3.org/2000/svg" version="1.1" width="100px" height="100px" style="shape-rendering:geometricPrecision; text-rendering:geometricPrecision; image-rendering:optimizeQuality; fill-rule:evenodd; clip-rule:evenodd" xmlns:xlink="http://www.w3.org/1999/xlink">
<g><path style="opacity:0.971" fill="#63feda" d="M 50.5,-0.5 C 51.1667,-0.5 51.8333,-0.5 52.5,-0.5C 55.433,1.90364 58.7663,3.73697 62.5,5C 71.2495,7.03496 79.9161,8.20163 88.5,8.5C 82.0037,14.1589 75.337,19.6589 68.5,25C 86.8275,30.8057 94.6608,43.3057 92,62.5C 89.2275,72.2687 83.7275,80.102 75.5,86C 57.5823,98.875 38.2489,101.542 17.5,94C 1.13591,80.8878 -3.36409,64.3878 4,44.5C 9.64384,33.5182 17.4772,24.3516 27.5,17C 35.2351,11.1463 42.9017,5.31299 50.5,-0.5 Z M 40.5,14.5 C 48.404,17.1195 56.0707,20.2862 63.5,24C 55.7139,29.4513 48.2139,35.2846 41,41.5C 40.5002,32.5062 40.3336,23.5062 40.5,14.5 Z M 23.5,28.5 C 24.6609,42.9942 24.8276,57.6609 24,72.5C 23.586,72.9574 23.086,73.2907 22.5,73.5C 18.0922,67.0389 16.0922,59.8722 16.5,52C 16.1353,43.2775 18.4687,35.4442 23.5,28.5 Z M 55.5,41.5 C 66.61,41.5408 74.61,46.3741 79.5,56C 70.1445,64.3405 60.6445,64.5071 51,56.5C 50.1725,52.1287 50.3391,47.7953 51.5,43.5C 53.0255,43.0057 54.3588,42.339 55.5,41.5 Z M 45.5,45.5 C 46.8265,61.0051 46.8265,76.6717 45.5,92.5C 37.3962,90.6157 30.7295,86.449 25.5,80C 30.3006,76.201 34.8006,72.0343 39,67.5C 40.7144,60.9578 41.8811,54.2912 42.5,47.5C 43.7387,47.0576 44.7387,46.3909 45.5,45.5 Z M 79.5,61.5 C 80.4891,65.7562 79.8224,69.9228 77.5,74C 72.775,73.149 67.9417,72.649 63,72.5C 58.8265,72.3743 54.8265,73.0409 51,74.5C 50.1747,70.7887 50.3414,67.122 51.5,63.5C 61.3496,68.057 70.6829,67.3903 79.5,61.5 Z M 60.5,74.5 C 65.5809,74.907 70.4143,76.2404 75,78.5C 75.6667,79.5 75.6667,80.5 75,81.5C 68.2562,88.2877 60.0895,91.9544 50.5,92.5C 50.3343,88.1539 50.501,83.8206 51,79.5C 54.3884,78.1047 57.5551,76.438 60.5,74.5 Z"/></g>
</svg>
